{
  "title": "Australian Survivor - S03E01",
  "uid": 15612411,
  "size": 664884831,
  "categoryP": "video",
  "categoryS": "tv_shows",
  "magnet": "?xt=urn:btih:ca8a180811b547bbeee7fa08a0e0ec102c0ccc2a&amp;dn=Australian+Survivor+-+S03E01&amp;tr=udp%3A%2F%2Ftracker.leechers-paradise.org%3A6969&amp;tr=udp%3A%2F%2Fzer0day.ch%3A1337&amp;tr=udp%3A%2F%2Fopen.demonii.com%3A1337&amp;tr=udp%3A%2F%2Ftracker.coppersurfer.tk%3A6969&amp;tr=udp%3A%2F%2Fexodus.desync.com%3A6969",
  "seeders": 75,
  "leechers": 11,
  "uploader": "Bullrout",
  "files": 1,
  "time": 1471797299,
  "description": "Australian Survivor - S03E01\r\n\r\nTwenty-four Australians arrive on the tropical island of Samoa ready to outwit, outplay and outlast each other in order to win the half a million dollar prize and the title of soul survivor.\r\n\r\nComplete name                            : Australian Survivor - S03E01.mp4\r\nFormat                                   : MPEG-4\r\nFormat profile                           : Base Media / Version 2\r\nCodec ID                                 : mp42 (mp42/isom/avc1)\r\nFile size                                : 634 MiB\r\nDuration                                 : 1h 19mn\r\nOverall bit rate mode                    : Variable\r\nOverall bit rate                         : 1 117 Kbps\r\n\r\nVideo\r\nID                                       : 2\r\nFormat                                   : AVC\r\nFormat/Info                              : Advanced Video Codec\r\nFormat profile                           :   \r\nFormat settings, CABAC                   : Yes\r\nFormat settings, ReFrames                : 3 frames\r\nCodec ID                                 : avc1\r\nCodec ID/Info                            : Advanced Video Coding\r\nDuration                                 : 1h 19mn\r\nBit rate mode                            : Variable\r\nBit rate                                 : 985 Kbps\r\nMaximum bit rate                         : 1 000 Kbps\r\nWidth                                    : 720 pixels\r\nHeight                                   : 404 pixels\r\nDisplay aspect ratio                     : 16:9\r\nOriginal display aspect ratio            : 16:9\r\nFrame rate mode                          : Constant\r\nFrame rate                               : 25.000 fps\r\nStandard                                 : PAL\r\nColor space                              : YUV\r\nChroma subsampling                       : 4:2:0\r\nBit depth                                : 8 bits\r\nScan type                                : Progressive\r\nBits/(Pixel*Frame)                       : 0.135\r\nStream size                              : 559 MiB (88%)\r\nWriting library                          : x264 core 112\r\nColor range                              : Limited\r\nColor primaries                          : BT.601 PAL\r\nTransfer characteristics                 : BT.470 System B, BT.470 System G\r\nMatrix coefficients                      : BT.601\r\n\r\nAudio\r\nID                                       : 1\r\nFormat                                   : AAC\r\nFormat/Info                              : Advanced Audio Codec\r\nFormat profile                           : LC\r\nCodec ID                                 : 40\r\nDuration                                 : 1h 19mn\r\nBit rate mode                            : Variable\r\nBit rate                                 : 128 Kbps\r\nMaximum bit rate                         : 576 Kbps\r\nChannel(s)                               : 2 channels\r\nChannel positions                        : Front: L R\r\nSampling rate                            : 48.0 KHz\r\nFrame rate                               : 46.875 fps (1024 spf)\r\nCompression mode                         : Lossy\r\nStream size                              : 72.7 MiB (11%)",
  "parsed": {
    "xt": "urn:btih:ca8a180811b547bbeee7fa08a0e0ec102c0ccc2a",
    "dn": "Australian Survivor - S03E01",
    "tr": [
      "udp://exodus.desync.com:6969",
      "udp://open.demonii.com:1337",
      "udp://tracker.coppersurfer.tk:6969",
      "udp://tracker.leechers-paradise.org:6969",
      "udp://zer0day.ch:1337"
    ],
    "infoHash": "ca8a180811b547bbeee7fa08a0e0ec102c0ccc2a",
    "infoHashBuffer": {
      "type": "Buffer",
      "data": [
        202,
        138,
        24,
        8,
        17,
        181,
        71,
        187,
        238,
        231,
        250,
        8,
        160,
        224,
        236,
        16,
        44,
        12,
        204,
        42
      ]
    },
    "name": "Australian Survivor - S03E01",
    "announce": [
      "udp://exodus.desync.com:6969",
      "udp://open.demonii.com:1337",
      "udp://tracker.coppersurfer.tk:6969",
      "udp://tracker.leechers-paradise.org:6969",
      "udp://zer0day.ch:1337"
    ],
    "urlList": []
  },
  "previous": 61,
  "peers": 26,
  "last_updated": "2016-12-27T13:06:24.119Z"
}